{"asset":{"version":"2.0","generator":"babylon.js glTF exporter for 3dsmax 2 v20200130.3"},"scene":0,"scenes":[{"nodes":[0,1],"extensions":{}}],"nodes":[{"mesh":0,"translation":[-66.35025,7.99267054,-8.281282],"rotation":[0.7071068,0.0,0.0,0.7071067],"scale":[1.0,1.0,1.0],"name":"Plane001"},{"translation":[0.0,0.0,0.0],"rotation":[0.0,0.0,0.0,1.0],"scale":[1.0,1.0,1.0],"name":"Default light"}],"meshes":[{"primitives":[{"attributes":{"POSITION":1,"NORMAL":2,"TEXCOORD_0":3},"indices":0,"mode":4,"material":0}],"name":"Plane001"}],"accessors":[{"bufferView":0,"componentType":5123,"count":60,"type":"SCALAR","name":"accessorIndices"},{"bufferView":1,"componentType":5126,"count":60,"max":[7.70462847,0.000450134277,7.990449],"min":[-2.53831077,-10.9036121,-9.167775],"type":"VEC3","name":"accessorPositions"},{"bufferView":1,"byteOffset":720,"componentType":5126,"count":60,"type":"VEC3","name":"accessorNormals"},{"bufferView":2,"componentType":5126,"count":60,"type":"VEC2","name":"accessorUVs"}],"bufferViews":[{"buffer":0,"byteLength":120,"name":"bufferViewScalar"},{"buffer":0,"byteOffset":120,"byteLength":1440,"byteStride":12,"name":"bufferViewFloatVec3"},{"buffer":0,"byteOffset":1560,"byteLength":480,"byteStride":8,"name":"bufferViewFloatVec2"}],"buffers":[{"uri":"Province de LIEGE.bin","byteLength":2040}],"materials":[{"pbrMetallicRoughness":{"baseColorFactor":[1.0,1.0,1.0,1.0],"baseColorTexture":{"index":0,"texCoord":0},"metallicFactor":0.0,"roughnessFactor":0.450053632},"emissiveFactor":[0.0,0.0,0.0],"alphaMode":"OPAQUE","name":"01 - Default"}],"textures":[{"sampler":0,"source":0,"name":"UV-Liège.jpg"}],"images":[{"uri":"./UV-Liège.jpg"}],"samplers":[{"magFilter":9729,"minFilter":9987,"wrapS":10497,"wrapT":10497}]}